<svg width="104" height="65" viewBox="0 0 104 65" fill="none" xmlns="http://www.w3.org/2000/svg">
<g opacity="0.2">
<path d="M31.281 42.8379H26.8935C26.8935 42.8379 25.9185 44.8691 23.5622 44.8691C22.0997 44.9504 20.4747 44.1379 19.7435 42.8379H15.356C15.356 42.8379 17.306 48.6066 23.5622 48.6066C29.006 48.6066 31.281 42.8379 31.281 42.8379Z" fill="#323232"/>
<path d="M52.3251 41.7814C52.4063 41.7814 53.8688 37.5564 53.8688 37.5564L55.4126 41.7814H59.6376L55.9813 32.3564H51.7563L48.1001 41.7814H52.3251Z" fill="#323232"/>
<path d="M30.3062 52.9941H28.3563L27.2188 58.2754H27.8687L28.275 56.0816H30.0625C31.2812 56.0816 31.9312 55.2691 31.9312 54.3754C31.9312 53.4816 31.3625 52.9941 30.3062 52.9941ZM29.9 55.5129H28.4375L28.8437 53.5629H29.8188C30.4688 53.5629 31.1187 53.5629 31.1187 54.3754C31.2812 55.1066 30.7125 55.5129 29.9 55.5129Z" fill="#323232"/>
<path d="M41.8438 41.7812L48.1 32.4375H42.9L39.7313 38.125H39.2437L35.5875 32.4375H30.875L37.1313 41.7812H41.8438Z" fill="#323232"/>
<path d="M41.8438 42.8379H37.1313V48.6066H41.8438V42.8379Z" fill="#323232"/>
<path d="M8.9375 42.8379C9.2625 43.0816 9.425 43.4879 9.425 43.8129C9.425 44.3004 8.9375 45.3566 6.825 45.3566H4.225V41.7004H12.5938C12.1875 41.0504 11.6188 40.5629 11.05 40.1566C10.3188 39.7504 10.5625 39.6691 10.5625 39.6691C10.5625 39.6691 12.1062 38.1254 12.1062 36.5004C12.1062 34.8754 10.8875 32.2754 6.825 32.2754H0V48.5254H8.36875C10.4 48.4441 12.2688 47.2254 13.0813 45.3566C13.325 44.4629 13.325 43.6504 13.0813 42.7566H8.9375V42.8379ZM4.0625 35.2816C4.0625 35.2816 5.525 35.3629 6.90625 35.2816C8.2875 35.2004 8.36875 38.9379 6.74375 38.9379C5.11875 38.9379 3.98125 38.9379 3.98125 38.9379V35.2816H4.0625Z" fill="#323232"/>
<path d="M19.3372 41.7814C19.3372 41.7814 18.4434 36.0127 23.0747 36.0127C28.1934 36.0127 27.1372 41.7814 27.1372 41.7814H31.3622C31.3622 41.7814 32.5809 32.3564 22.9934 32.3564C13.4059 32.3564 15.0309 41.7814 15.0309 41.7814H19.3372Z" fill="#323232"/>
<path d="M94.1688 40.2377C94.1688 36.5002 90.5125 32.3564 87.3438 32.3564H80.0312V41.7814H83.6875V35.5252H86.2875C88.1562 35.5252 90.5125 38.2877 90.5125 40.2377C90.5125 42.1877 88.5625 45.5189 86.2875 45.5189H83.6875V42.9189H80.0312V48.6877H87.9125C91 48.6064 94.1688 43.9752 94.1688 40.2377Z" fill="#323232"/>
<path d="M59.1497 27.1564L55.981 21.3877L52.3247 31.3814H57.606L59.1497 27.1564Z" fill="#323232"/>
<path d="M94.9003 34.0627C95.794 34.0627 96.6878 33.5752 97.094 32.7627C97.3378 32.3565 97.5003 31.869 97.419 31.4627C97.419 31.0565 97.2565 30.569 97.094 30.1627C96.8503 29.7565 96.5253 29.5127 96.2003 29.269C95.794 29.0252 95.3065 28.8627 94.9003 28.944C94.494 28.944 94.0065 29.1065 93.6003 29.3502C93.194 29.594 92.869 29.919 92.7065 30.244C92.3003 31.0565 92.3003 32.0315 92.7065 32.844C93.194 33.6565 94.0065 34.144 94.9003 34.0627ZM93.1128 30.4065C93.2753 30.0815 93.519 29.8377 93.844 29.6752C94.494 29.269 95.3065 29.269 96.0378 29.6752C96.3628 29.8377 96.6065 30.0815 96.769 30.4065C97.1753 31.0565 97.1753 31.869 96.769 32.6002C96.6065 32.9252 96.3628 33.169 96.0378 33.3315C95.7128 33.494 95.3878 33.6565 94.9815 33.6565C94.5753 33.6565 94.2503 33.5752 93.9253 33.4127C93.6003 33.2502 93.3565 33.0065 93.194 32.6815C92.7065 31.9502 92.7065 31.1377 93.1128 30.4065Z" fill="#323232"/>
<path d="M94.575 32.1124H95.0625L95.6312 32.9249H96.3625L95.7125 32.0312C95.875 31.9499 96.0375 31.8687 96.1188 31.6249C96.2813 31.4624 96.2812 31.2187 96.2812 31.0562C96.2812 30.7312 96.1187 30.4874 95.9562 30.3249C95.7125 30.1624 95.3875 29.9999 95.0625 30.0812H93.8438V32.9249H94.575V32.1124ZM94.4938 30.6499H94.9C95.0625 30.6499 95.225 30.7312 95.3063 30.8124C95.4688 30.8937 95.4688 30.9749 95.4688 31.1374C95.4688 31.2999 95.3875 31.3812 95.3063 31.4624C95.1438 31.5437 95.0625 31.6249 94.9 31.6249H94.4938V30.6499Z" fill="#323232"/>
<path d="M69.0625 42.8379L72.7187 48.6066H77.9188L73.6937 42.8379H69.0625Z" fill="#323232"/>
<path d="M68.4937 42.8379H64.8374V48.6066H68.4937V42.8379Z" fill="#323232"/>
<path d="M63.2938 31.3814L64.8375 27.1564L61.75 21.3877L58.0938 31.3814H63.2938Z" fill="#323232"/>
<path d="M45.5 48.6066H50.2125L51.2687 45.4379H56.55L57.6063 48.6066H62.2375L60.2062 42.8379H47.6125L45.5 48.6066Z" fill="#323232"/>
<path d="M69.0628 31.3814L70.6065 27.1564L67.4378 21.3877L63.8628 31.3814H69.0628Z" fill="#323232"/>
<path d="M63.4563 54.4561L63.2939 55.2686C63.1314 56.1623 62.8063 56.9748 62.3188 57.7061H61.9126L61.5063 59.4123H62.1564L62.4001 58.2748H65.2439L65.0001 59.4123H65.6501L66.0564 57.7061H65.5688L66.2189 54.4561H63.4563ZM64.7563 57.6248H62.8876C63.2939 56.8936 63.6189 56.0811 63.7814 55.1873L63.8626 54.7811H65.3251L64.7563 57.6248Z" fill="#323232"/>
<path d="M85.3125 54.2939C85.2313 54.2939 85.15 54.2939 85.0688 54.2939C83.9313 54.2939 83.0375 55.3502 83.0375 56.7314C82.9563 57.5439 83.525 58.2752 84.3375 58.3564C84.4188 58.3564 84.5 58.3564 84.5813 58.3564C85.3938 58.4377 86.125 57.8689 86.2875 57.0564H85.6375C85.475 57.5439 85.0688 57.8689 84.5813 57.8689C84.0938 57.8689 83.6063 57.4627 83.6063 56.9752C83.6063 56.8939 83.6063 56.8127 83.6063 56.8127C83.6063 56.8127 83.6063 56.6502 83.6063 56.5689H86.45C86.5313 56.4064 86.5313 56.1627 86.5313 55.9189C86.6125 55.1064 86.0438 54.3752 85.3125 54.2939ZM85.9625 55.8377C85.9625 55.9189 85.9625 55.9189 85.9625 56.0002H83.7688C83.85 55.3502 84.4188 54.8627 85.0688 54.8627C85.5563 54.7814 85.9625 55.1877 85.9625 55.6752C85.9625 55.6752 85.9625 55.7564 85.9625 55.8377Z" fill="#323232"/>
<path d="M67.5187 56.4875C67.275 57.3813 67.0312 57.7063 66.7062 57.7063C66.5437 57.7063 66.5437 57.7062 66.3812 57.625L66.2188 58.1125C66.3813 58.1938 66.5437 58.1938 66.625 58.1938C67.275 58.1938 67.6812 57.7875 68.0062 56.5688L68.4125 54.8625H69.7125L69.0625 58.1125H69.7125L70.525 54.375H68.0062L67.5187 56.4875Z" fill="#323232"/>
<path d="M79.7062 57.4623L79.2188 54.4561H78.4062L77.5938 58.1936H78.1625L78.8125 55.1873H78.8937L79.3 58.1936H79.95L81.6562 55.1873L81.0062 58.1936H81.6562L82.4688 54.4561H81.4938L79.7062 57.4623Z" fill="#323232"/>
<path d="M71.4997 55.4313C71.4997 55.5126 71.4997 55.5938 71.4997 55.5938C71.4997 56.0813 71.8247 56.4876 72.3122 56.4876L70.606 58.1126H71.4185L72.881 56.4876H73.6935L73.2872 58.1126H73.9372L74.7497 54.3751H72.7997C72.1497 54.2938 71.581 54.7813 71.4997 55.4313ZM74.0997 54.9438L73.856 56.0813H72.9622C72.556 56.0813 72.0685 56.0813 72.0685 55.5938C72.0685 55.1876 72.3935 54.9438 72.9622 54.9438H74.0997Z" fill="#323232"/>
<path d="M89.8627 53.0746C89.2127 53.0746 88.6439 53.3996 88.1564 53.8871C87.5877 54.7809 87.3439 55.7559 87.2627 56.7309C87.1002 57.5434 87.6689 58.1934 88.4814 58.2746C88.6439 58.2746 88.6439 58.2746 88.8064 58.2746C90.1064 58.2746 90.9189 57.1371 90.9189 55.8371C91.0002 55.1059 90.4314 54.3746 89.7002 54.3746C89.5377 54.3746 89.5377 54.3746 89.3752 54.3746C88.8064 54.3746 88.3189 54.6996 87.9939 55.1871C88.3189 54.2934 88.8064 53.7246 89.6189 53.7246C90.2689 53.6434 91.0814 53.7246 91.3252 52.9121H90.6752C90.5939 52.9934 90.3502 52.9934 89.8627 53.0746ZM89.3752 54.8621C89.8627 54.7809 90.2689 55.1871 90.2689 55.6746C90.2689 55.7559 90.2689 55.8371 90.2689 55.8371C90.2689 56.8934 89.6189 57.7059 88.8877 57.7059C88.4002 57.7059 87.9127 57.2996 87.9127 56.8121C87.9127 56.7309 87.9127 56.6496 87.9127 56.6496C87.9939 55.8371 88.4814 54.8621 89.3752 54.8621Z" fill="#323232"/>
<path d="M96.6062 56.4875C96.3624 57.3813 96.1187 57.7063 95.7937 57.7063C95.6312 57.7063 95.6311 57.7062 95.4686 57.625L95.3062 58.1125C95.4687 58.1938 95.6312 58.1938 95.7124 58.1938C96.3624 58.1938 96.7686 57.7875 97.0936 56.5688L97.4999 54.8625H98.7999L98.1499 58.1125H98.7999L99.6124 54.375H97.0936L96.6062 56.4875Z" fill="#323232"/>
<path d="M94.0063 54.2939C93.9251 54.2939 93.8439 54.2939 93.7626 54.2939C92.6251 54.2939 91.7314 55.3502 91.7314 56.7314C91.6501 57.5439 92.2189 58.2752 93.0314 58.3564C93.1126 58.3564 93.1939 58.3564 93.2751 58.3564C94.0876 58.4377 94.8189 57.8689 94.9814 57.0564H94.3313C94.1688 57.5439 93.7626 57.8689 93.2751 57.8689C92.6251 57.7877 92.2188 57.2189 92.3001 56.7314C92.3001 56.6502 92.3001 56.6502 92.3001 56.5689H95.1438C95.2251 56.4064 95.2251 56.1627 95.2251 55.9189C95.3063 55.1064 94.7376 54.3752 94.0063 54.2939ZM94.6564 55.8377C94.6564 55.9189 94.6564 56.0002 94.6564 56.0002H92.4626C92.5439 55.3502 93.1126 54.8627 93.7626 54.8627C94.2501 54.7814 94.6564 55.1877 94.6564 55.6752C94.6564 55.6752 94.6564 55.7564 94.6564 55.8377Z" fill="#323232"/>
<path d="M58.0122 54.2939C57.931 54.2939 57.8497 54.2939 57.7685 54.2939C56.631 54.2939 55.7372 55.3502 55.7372 56.7314C55.656 57.5439 56.2247 58.2752 57.0372 58.3564C57.1185 58.3564 57.1997 58.3564 57.281 58.3564C58.0935 58.4377 58.8247 57.8689 58.9872 57.0564H58.3372C58.1747 57.5439 57.7685 57.8689 57.281 57.8689C56.7935 57.8689 56.306 57.4627 56.306 56.9752C56.306 56.8939 56.306 56.8127 56.306 56.8127C56.306 56.7314 56.306 56.6502 56.306 56.5689H59.1497C59.231 56.4064 59.231 56.1627 59.231 55.9189C59.3935 55.1064 58.8247 54.3752 58.0122 54.2939ZM58.6622 55.8377C58.6622 55.9189 58.6622 55.9189 58.6622 56.0002H56.4685C56.5497 55.3502 57.1185 54.8627 57.7685 54.8627C58.256 54.7814 58.6622 55.1877 58.6622 55.6752C58.6622 55.6752 58.6622 55.7564 58.6622 55.8377Z" fill="#323232"/>
<path d="M45.0938 54.2939C45.0125 54.2939 44.9313 54.2939 44.85 54.2939C43.7125 54.2939 42.8188 55.3502 42.8188 56.7314C42.7375 57.5439 43.3063 58.2752 44.1188 58.3564C44.2 58.3564 44.2813 58.3564 44.3625 58.3564C45.175 58.4377 45.9063 57.8689 46.0688 57.0564H45.4188C45.2563 57.5439 44.85 57.8689 44.3625 57.8689C43.7125 57.7877 43.3063 57.3002 43.3875 56.7314C43.3875 56.6502 43.3875 56.5689 43.3875 56.5689H46.2313C46.3125 56.3252 46.3125 56.0814 46.3125 55.9189C46.3938 55.1064 45.825 54.3752 45.0938 54.2939ZM45.6625 55.8377C45.6625 55.9189 45.6625 56.0002 45.6625 56.0002H43.4688C43.55 55.3502 44.1188 54.8627 44.7688 54.8627C45.2563 54.7814 45.6625 55.1877 45.6625 55.6752C45.7438 55.6752 45.6625 55.7564 45.6625 55.8377Z" fill="#323232"/>
<path d="M40.9499 57.6248H39.3249L40.0562 54.4561H39.4062L38.6749 57.6248H37.1312L37.8624 54.4561H37.2124L36.3999 58.1936H41.4374L42.2499 54.4561H41.5999L40.9499 57.6248Z" fill="#323232"/>
<path d="M103.107 54.375L100.832 57.4625L101.482 54.375H100.832L100.019 58.1938H100.913L103.269 55.1063L102.538 58.1938H103.188L104 54.375H103.107Z" fill="#323232"/>
<path d="M34.6123 54.2939C34.5311 54.2939 34.4498 54.2939 34.3686 54.2939C33.2311 54.2939 32.3373 55.3502 32.3373 56.7314C32.2561 57.5439 32.8248 58.2752 33.6373 58.3564C33.7186 58.3564 33.7998 58.3564 33.8811 58.3564C34.6936 58.4377 35.4248 57.8689 35.5873 57.0564H34.9373C34.7748 57.5439 34.3686 57.8689 33.8811 57.8689C33.3936 57.8689 32.9061 57.4627 32.9061 56.9752C32.9061 56.8939 32.9061 56.8127 32.9061 56.8127C32.9061 56.7314 32.9061 56.6502 32.9061 56.5689H35.7498C35.8311 56.4064 35.8311 56.1627 35.8311 55.9189C35.9936 55.1064 35.4248 54.3752 34.6123 54.2939ZM35.2623 55.8377C35.2623 55.9189 35.2623 55.9189 35.2623 56.0002H33.0686C33.1498 55.3502 33.7186 54.8627 34.3686 54.8627C34.8561 54.7814 35.2623 55.1877 35.2623 55.6752C35.2623 55.6752 35.2623 55.7564 35.2623 55.8377Z" fill="#323232"/>
<path d="M52.0003 57.4623L52.6503 54.4561H52.0815L51.269 58.1936H52.0815L54.4378 55.1061L53.7065 58.1936H54.3565L55.169 54.4561H54.3565L52.0003 57.4623Z" fill="#323232"/>
<path d="M49.8063 55.9186H47.9376L48.2626 54.4561H47.6938L46.8813 58.1936H47.4501L47.8563 56.4061H49.7251L49.4001 58.1936H50.0501L50.8626 54.4561H50.2126L49.8063 55.9186Z" fill="#323232"/>
<path d="M72.1499 32.4375H64.8374V41.8625H73.2061C74.6686 41.8625 76.3749 39.0187 76.3749 37.15C76.3749 35.2 74.2624 32.4375 72.1499 32.4375ZM71.5811 38.9375C69.8749 38.9375 68.5749 38.9375 68.5749 38.9375V35.2812C68.5749 35.2812 69.6311 35.2812 71.5811 35.2812C73.5311 35.2812 73.2874 38.9375 71.5811 38.9375Z" fill="#323232"/>
</g>
</svg>
